<svg xmlns="http://www.w3.org/2000/svg" xmlns:xlink="http://www.w3.org/1999/xlink" width="500" zoomAndPan="magnify" viewBox="0 0 375 374.999991" height="500" preserveAspectRatio="xMidYMid meet" version="1.0"><defs><clipPath id="id1"><path d="M 70 160 L 314 160 L 314 370.5 L 70 370.5 Z M 70 160 " clip-rule="nonzero"/></clipPath></defs><g clip-path="url(#id1)"><path fill="#ffbd59" d="M 248.765625 370.417969 C 283.519531 367.914062 344.835938 343.421875 293.265625 253.226562 C 244.4375 167.820312 202.851562 161.949219 202.851562 161.949219 C 194.269531 158.964844 184.476562 161.949219 184.476562 161.949219 C 184.476562 161.949219 151.902344 165.660156 94.0625 253.226562 C 33.398438 345.074219 107.480469 365.53125 142.847656 369.640625 C 149.808594 370.457031 171.214844 368.808594 171.214844 368.808594 C 171.214844 368.808594 192.261719 363.632812 220.519531 368.808594 L 248.765625 370.417969 " fill-opacity="1" fill-rule="nonzero"/></g><path fill="#ffbd59" d="M 78.269531 143.628906 C 78.269531 143.628906 137.507812 191.902344 89.1875 229.269531 C 40.855469 266.636719 6.558594 196.71875 11.238281 159.269531 C 15.914062 121.824219 37.488281 105.820312 78.269531 143.628906 " fill-opacity="1" fill-rule="nonzero"/><path fill="#ffbd59" d="M 172.292969 53.023438 C 172.292969 53.023438 220.375 130.96875 150.933594 154.316406 C 81.484375 177.660156 70.164062 84.984375 90.207031 44.410156 C 110.242188 3.84375 140.984375 -5.816406 172.292969 53.027344 " fill-opacity="1" fill-rule="nonzero"/><path fill="#ffbd59" d="M 217.019531 53.023438 C 217.019531 53.023438 168.925781 130.96875 238.375 154.316406 C 307.824219 177.660156 319.144531 84.984375 299.101562 44.410156 C 279.066406 3.84375 248.324219 -5.816406 217.019531 53.027344 " fill-opacity="1" fill-rule="nonzero"/><path fill="#ffbd59" d="M 312.039062 143.628906 C 312.039062 143.628906 252.808594 191.902344 301.128906 229.269531 C 349.453125 266.636719 383.753906 196.71875 379.074219 159.269531 C 374.394531 121.824219 352.824219 105.820312 312.039062 143.628906 " fill-opacity="1" fill-rule="nonzero"/><path fill="#343334" d="M 68.527344 139.070312 C 82.671875 150.636719 96.785156 168.683594 97.257812 187.585938 C 97.664062 204.210938 84.503906 217.484375 70.648438 224.679688 C 58.679688 230.910156 45.339844 229.402344 34.855469 221.058594 C 24.4375 212.761719 17.5625 200.378906 13.144531 188.035156 C 8.804688 175.902344 6.574219 162.703125 8.503906 149.882812 C 10.160156 138.820312 14.089844 123.269531 26.242188 119.375 C 32.046875 117.511719 38.464844 119.207031 43.855469 121.582031 C 53.113281 125.667969 61.144531 132.289062 68.527344 139.070312 C 72.25 142.496094 77.828125 136.957031 74.089844 133.515625 C 62.265625 122.648438 45.855469 108.929688 28.488281 110.949219 C 14.863281 112.539062 7.253906 124.425781 3.453125 136.5 C -5.136719 163.78125 2.980469 195.273438 20.332031 217.445312 C 28.4375 227.808594 39.902344 235.585938 53.277344 236.480469 C 69.238281 237.542969 85.007812 227.039062 94.824219 215.308594 C 104.460938 203.804688 107.238281 189.230469 103.140625 174.898438 C 99.71875 162.941406 92.238281 152.316406 84.003906 143.171875 C 80.925781 139.761719 77.648438 136.429688 74.089844 133.523438 C 70.199219 130.332031 64.601562 135.855469 68.527344 139.070312 " fill-opacity="1" fill-rule="nonzero"/><path fill="#343334" d="M 161.929688 47.671875 C 169.617188 60.160156 174.902344 74.835938 176.996094 89.296875 C 178.601562 100.335938 177.453125 112.035156 171.859375 121.832031 C 164.542969 134.632812 150.289062 141.585938 136.5 145.066406 C 79.265625 159.507812 69.199219 79.523438 85.332031 41.894531 C 90.988281 28.699219 102.03125 9.835938 118.085938 8.132812 C 125.800781 7.316406 132.90625 11.152344 138.625 15.976562 C 148.683594 24.460938 155.78125 36.214844 161.929688 47.671875 C 164.332031 52.140625 171.117188 48.171875 168.726562 43.707031 C 160.453125 28.292969 149.566406 10.476562 132.867188 3.015625 C 120.949219 -2.308594 108.929688 0.710938 99.097656 8.722656 C 88.4375 17.40625 80.808594 30.917969 76.246094 43.703125 C 72.144531 55.191406 70.550781 67.667969 70.441406 79.8125 C 70.226562 103.535156 76.429688 130.773438 96.148438 145.945312 C 118.101562 162.847656 153.726562 153.269531 171.742188 134.898438 C 195.621094 110.542969 184.585938 69.5 168.726562 43.710938 C 166.070312 39.402344 159.273438 43.34375 161.929688 47.671875 " fill-opacity="1" fill-rule="nonzero"/><path fill="#343334" d="M 206.667969 43.707031 C 198.886719 56.351562 193.355469 71.257812 191.003906 85.863281 C 189.117188 97.554688 189.503906 109.707031 194.214844 120.714844 C 199.726562 133.617188 210.8125 142.652344 223.492188 148.121094 C 236.503906 153.738281 251.359375 156.695312 265.285156 152.851562 C 276.53125 149.75 285.523438 141.882812 291.816406 132.273438 C 305.464844 111.4375 307.140625 83.199219 303.113281 59.285156 C 301.351562 48.773438 297.808594 38.921875 292.648438 29.597656 C 286.914062 19.238281 279.082031 8.75 268.226562 3.363281 C 240.199219 -10.5625 217.726562 23.097656 206.667969 43.707031 C 204.265625 48.175781 211.054688 52.140625 213.453125 47.671875 C 221.242188 33.164062 232.042969 14.167969 248.976562 8.949219 C 261.121094 5.207031 271.53125 13.628906 278.679688 22.554688 C 294.929688 42.824219 299.21875 69.964844 296.199219 95.171875 C 293.546875 117.257812 282.714844 142.230469 258.394531 146.339844 C 244.304688 148.71875 228.28125 143.21875 216.648438 135.566406 C 206.445312 128.855469 199.816406 118.117188 198.226562 106.039062 C 195.628906 86.3125 203.164062 64.398438 213.453125 47.675781 C 216.121094 43.34375 209.308594 39.402344 206.667969 43.707031 " fill-opacity="1" fill-rule="nonzero"/><path fill="#343334" d="M 302.300781 133.515625 C 287.617188 145.527344 274 163.703125 271.617188 182.859375 C 269.625 198.917969 277.421875 213.003906 289.464844 223.171875 C 300.964844 232.875 315.691406 239.121094 330.792969 235.28125 C 343.875 231.949219 353.941406 221.464844 361.046875 210.507812 C 368.777344 198.554688 373.695312 184.4375 375.628906 170.378906 C 378.746094 147.714844 371.375 106.566406 340.320312 111.140625 C 325.617188 113.300781 312.867188 123.804688 302.300781 133.515625 C 298.558594 136.957031 304.136719 142.496094 307.863281 139.070312 C 318.410156 129.382812 335.589844 114.15625 351.402344 119.796875 C 363.640625 124.171875 367.179688 142.277344 368.332031 153.332031 C 369.730469 166.734375 366.402344 180.5625 361.375 192.914062 C 356.382812 205.203125 348.289062 217.476562 336.667969 224.359375 C 324.816406 231.382812 311.6875 228.796875 300.5625 221.679688 C 287.570312 213.367188 277.957031 200.316406 279.308594 184.429688 C 280.804688 166.882812 294.640625 149.882812 307.863281 139.070312 C 311.789062 135.855469 306.1875 130.332031 302.300781 133.515625 " fill-opacity="1" fill-rule="nonzero"/><path fill="#343334" d="M 298.257812 262.628906 C 297.261719 260.429688 296.128906 258.308594 295.011719 256.164062 C 294.019531 254.269531 291.40625 253.71875 289.628906 254.757812 C 287.710938 255.878906 287.222656 258.230469 288.214844 260.132812 C 289.332031 262.277344 290.472656 264.398438 291.46875 266.597656 C 292.351562 268.554688 295.144531 269 296.851562 268.011719 C 298.839844 266.839844 299.140625 264.585938 298.257812 262.628906 " fill-opacity="1" fill-rule="nonzero"/><path fill="#343334" d="M 289.699219 246.238281 C 272.417969 216.132812 251.410156 186.007812 222.703125 165.675781 C 212.15625 158.203125 199.035156 151.34375 185.71875 151.726562 C 182.660156 151.816406 179.488281 152.308594 176.539062 153.132812 C 178.578125 152.5625 176.820312 153.085938 176.121094 153.214844 C 175.128906 153.402344 174.15625 153.707031 173.203125 154.039062 C 167.863281 155.875 162.890625 158.746094 158.210938 161.871094 C 133.875 178.160156 114.828125 202.359375 97.839844 225.773438 C 85.09375 243.324219 72.589844 261.539062 65.148438 282.058594 C 60.503906 294.867188 58.351562 309.046875 61.84375 322.40625 C 67.46875 343.910156 87.652344 356.300781 107.5625 362.703125 C 116.605469 365.617188 125.992188 367.378906 135.414062 368.519531 C 142.101562 369.328125 149.070312 368.667969 155.773438 368.289062 C 159.257812 368.09375 162.867188 368.101562 166.296875 367.378906 C 172.101562 366.152344 178.074219 365.707031 183.996094 365.5 C 188.976562 365.320312 193.96875 365.484375 198.941406 365.839844 C 203.914062 366.199219 208.851562 367.464844 213.800781 367.75 C 223.128906 368.28125 232.449219 368.808594 241.78125 369.34375 C 245.808594 369.570312 250.363281 368.433594 254.304688 367.675781 C 259.117188 366.757812 263.859375 365.4375 268.46875 363.78125 C 278.121094 360.308594 287.167969 355.128906 294.5 347.910156 C 314.472656 328.210938 312.125 298.835938 303.152344 274.484375 C 301.421875 269.78125 293.816406 271.8125 295.570312 276.574219 C 301.3125 292.164062 304.90625 309.371094 299.523438 325.570312 C 295.757812 336.917969 287.027344 345.589844 276.816406 351.40625 C 267.421875 356.757812 256.578125 359.828125 245.878906 361.101562 C 236.304688 362.25 226.183594 360.597656 216.59375 360.054688 C 208.898438 359.617188 201.339844 358.011719 193.609375 357.683594 C 185.324219 357.320312 177.027344 357.816406 168.832031 358.996094 C 167.117188 359.238281 165.417969 359.539062 163.71875 359.898438 C 162.546875 360.160156 164.347656 359.875 164.101562 359.890625 C 163.253906 359.953125 162.394531 360.015625 161.539062 360.070312 C 154.554688 360.550781 147.542969 360.96875 140.535156 360.9375 C 131.417969 360.898438 121.996094 358.695312 113.152344 356.183594 C 103.351562 353.402344 93.882812 349.355469 85.628906 343.304688 C 77.464844 337.324219 71.515625 328.863281 69.097656 319.027344 C 65.753906 305.402344 69.738281 290.703125 75.074219 278.140625 C 83.804688 257.585938 97.507812 239.003906 110.886719 221.269531 C 121.035156 207.828125 132.023438 194.902344 144.257812 183.304688 C 151.125 176.792969 158.460938 170.695312 166.621094 165.847656 C 168.933594 164.472656 171.324219 163.222656 173.800781 162.164062 C 172.761719 162.609375 174.964844 161.722656 175.46875 161.558594 C 176.066406 161.34375 176.679688 161.164062 177.292969 161 C 179.835938 160.339844 176.058594 161.4375 178.84375 160.652344 C 184.46875 159.074219 189.519531 159.75 195.125 160.789062 C 196.347656 161.007812 197.542969 161.367188 198.722656 161.746094 C 201.71875 162.710938 202.828125 163.238281 205.492188 164.527344 C 217.570312 170.378906 228.070312 179.132812 237.523438 188.523438 C 255.710938 206.5625 270.207031 228.082031 282.914062 250.207031 C 285.4375 254.601562 292.234375 250.640625 289.699219 246.238281 " fill-opacity="1" fill-rule="nonzero"/></svg>